<svg width="20" height="20" viewBox="0 0 20 20" fill="none" xmlns="http://www.w3.org/2000/svg">
<path fill-rule="evenodd" clip-rule="evenodd" d="M10 0.833328C4.93738 0.833328 0.833328 4.93738 0.833328 10C0.833328 15.0626 4.93738 19.1667 10 19.1667C15.0626 19.1667 19.1667 15.0626 19.1667 10C19.1667 4.93738 15.0626 0.833328 10 0.833328ZM10 5.83333C10.4602 5.83333 10.8333 6.20642 10.8333 6.66666V9.16666H13.3333C13.7936 9.16666 14.1667 9.53976 14.1667 10C14.1667 10.4602 13.7936 10.8333 13.3333 10.8333H10.8333V13.3333C10.8333 13.7936 10.4602 14.1667 10 14.1667C9.53976 14.1667 9.16666 13.7936 9.16666 13.3333V10.8333H6.66666C6.20642 10.8333 5.83333 10.4602 5.83333 10C5.83333 9.53976 6.20642 9.16666 6.66666 9.16666H9.16666V6.66666C9.16666 6.20642 9.53976 5.83333 10 5.83333Z" fill="#303030"/>
</svg>
