<svg width="16" height="16" viewBox="0 0 16 16" fill="none" xmlns="http://www.w3.org/2000/svg">
<path fill-rule="evenodd" clip-rule="evenodd" d="M13.1855 2.81455C10.3216 -0.0492948 5.67842 -0.0492948 2.81457 2.81455C-0.0492743 5.6784 -0.0492743 10.3216 2.81457 13.1854C5.67842 16.0493 10.3216 16.0493 13.1855 13.1854C16.0493 10.3216 16.0493 5.6784 13.1855 2.81455ZM10.357 5.64298C10.6174 5.90333 10.6174 6.32544 10.357 6.58579L7.72388 9.21895H9.88564C10.2538 9.21895 10.5523 9.51743 10.5523 9.88562C10.5523 10.2538 10.2538 10.5523 9.88564 10.5523H6.1144C5.74621 10.5523 5.44774 10.2538 5.44774 9.88562V6.11438C5.44774 5.74619 5.74621 5.44772 6.1144 5.44772C6.48259 5.44771 6.78107 5.74619 6.78107 6.11438V8.27614L9.41423 5.64298C9.67458 5.38263 10.0967 5.38263 10.357 5.64298Z" fill="white"/>
</svg>
