<svg width="16" height="16" viewBox="0 0 16 16" fill="none" xmlns="http://www.w3.org/2000/svg">
<path fill-rule="evenodd" clip-rule="evenodd" d="M2.81454 13.1855C5.67839 16.0493 10.3216 16.0493 13.1854 13.1854C16.0493 10.3216 16.0493 5.67839 13.1854 2.81455C10.3216 -0.0492949 5.67838 -0.0492947 2.81454 2.81455C-0.049305 5.6784 -0.0493047 10.3216 2.81454 13.1855ZM5.64297 10.357C5.38262 10.0967 5.38262 9.67456 5.64297 9.41421L8.27613 6.78105H6.11437C5.74618 6.78105 5.4477 6.48257 5.44771 6.11438C5.4477 5.74619 5.74618 5.44771 6.11437 5.44772H9.88561C10.2538 5.44771 10.5523 5.74619 10.5523 6.11438V9.88562C10.5523 10.2538 10.2538 10.5523 9.88561 10.5523C9.51742 10.5523 9.21894 10.2538 9.21894 9.88562V7.72386L6.58578 10.357C6.32543 10.6174 5.90332 10.6174 5.64297 10.357Z" fill="white"/>
</svg>
