<svg width="16" height="16" viewBox="0 0 16 16" fill="none" xmlns="http://www.w3.org/2000/svg">
<path fill-rule="evenodd" clip-rule="evenodd" d="M8.00001 0.666667C3.94992 0.666667 0.666672 3.94991 0.666672 8C0.666672 12.0501 3.94992 15.3333 8.00001 15.3333C12.0501 15.3333 15.3333 12.0501 15.3333 8C15.3333 3.94991 12.0501 0.666667 8.00001 0.666667ZM8.66667 3.66667C8.66667 3.29848 8.36819 3 8.00001 3C7.63182 3 7.33334 3.29848 7.33334 3.66667V4C6.04467 4 5.00001 5.04467 5.00001 6.33333C5.00001 7.622 6.04467 8.66667 7.33334 8.66667H8.66667C9.21896 8.66667 9.66667 9.11438 9.66667 9.66667C9.66667 10.219 9.21896 10.6667 8.66667 10.6667H7.22223C6.73131 10.6667 6.33334 10.2687 6.33334 9.77778C6.33334 9.40959 6.03486 9.11111 5.66667 9.11111C5.29848 9.11111 5.00001 9.40959 5.00001 9.77778C5.00001 11.0051 5.99493 12 7.22223 12H7.33334V12.3333C7.33334 12.7015 7.63182 13 8.00001 13C8.36819 13 8.66667 12.7015 8.66667 12.3333V12C9.95534 12 11 10.9553 11 9.66667C11 8.378 9.95534 7.33333 8.66667 7.33333H7.33334C6.78105 7.33333 6.33334 6.88562 6.33334 6.33333C6.33334 5.78105 6.78105 5.33333 7.33334 5.33333H8.77778C9.2687 5.33333 9.66667 5.7313 9.66667 6.22222C9.66667 6.59041 9.96515 6.88889 10.3333 6.88889C10.7015 6.88889 11 6.59041 11 6.22222C11 4.99492 10.0051 4 8.77778 4H8.66667V3.66667Z" fill="white"/>
</svg>
