<svg width="20" height="20" viewBox="0 0 20 20" fill="none" xmlns="http://www.w3.org/2000/svg">
<path fill-rule="evenodd" clip-rule="evenodd" d="M10.8324 1.62689C10.8333 1.64677 10.8333 1.65773 10.8333 1.67965L10.8333 5.35992C10.8333 5.57024 10.8333 5.77507 10.8475 5.94853C10.863 6.13903 10.8997 6.36381 11.015 6.58999C11.1748 6.9036 11.4298 7.15856 11.7434 7.31835C11.9695 7.4336 12.1943 7.47032 12.3848 7.48589C12.5583 7.50006 12.7631 7.50004 12.9734 7.50001L16.6538 7.50001C16.6756 7.50001 16.6865 7.50001 16.7064 7.50096C17.1179 7.52059 17.4796 7.88249 17.4991 8.29402C17.5 8.31387 17.5 8.32034 17.5 8.33328V14.3678C17.5 15.0386 17.5 15.5922 17.4632 16.0432C17.4249 16.5116 17.3428 16.9422 17.1367 17.3466C16.8171 17.9738 16.3072 18.4838 15.68 18.8034C15.2755 19.0094 14.8449 19.0916 14.3765 19.1298C13.9255 19.1667 13.3719 19.1667 12.7011 19.1667H7.2989C6.6281 19.1667 6.07447 19.1667 5.62348 19.1298C5.15507 19.0916 4.72448 19.0094 4.32003 18.8034C3.69283 18.4838 3.18289 17.9738 2.86331 17.3466C2.65724 16.9422 2.5751 16.5116 2.53683 16.0432C2.49998 15.5922 2.49999 15.0386 2.5 14.3678V5.63224C2.49999 4.96144 2.49998 4.4078 2.53683 3.95681C2.5751 3.4884 2.65724 3.05781 2.86331 2.65337C3.18289 2.02616 3.69283 1.51622 4.32003 1.19665C4.72448 0.990571 5.15507 0.908434 5.62348 0.870163C6.07447 0.833316 6.62809 0.833324 7.29888 0.833334H10C10.013 0.833328 10.0195 0.833326 10.0394 0.834266C10.4509 0.853732 10.8127 1.21541 10.8324 1.62689Z" fill="#303030"/>
<path d="M16.2239 5.77189C16.1237 5.83333 16.0013 5.83333 15.7566 5.83333L13.1667 5.83329C12.9333 5.83329 12.8166 5.83329 12.7275 5.78787C12.6491 5.74792 12.5854 5.68418 12.5454 5.60578C12.5 5.51665 12.5 5.39998 12.5 5.16664L12.5 2.5767C12.5 2.33201 12.5 2.20967 12.5614 2.10945C12.6482 1.96792 12.8526 1.8833 13.0141 1.9221C13.1284 1.94958 13.2081 2.02936 13.3675 2.18893L16.1444 4.96586C16.304 5.12527 16.3838 5.20498 16.4112 5.31928C16.45 5.4807 16.3654 5.68512 16.2239 5.77189Z" fill="#303030"/>
</svg>
