<svg width="20" height="20" viewBox="0 0 20 20" fill="none" xmlns="http://www.w3.org/2000/svg">
<path d="M6.65044 3.81972C6.57254 3.4302 6.23053 3.14982 5.83329 3.14982C5.43606 3.14982 5.09405 3.4302 5.01614 3.81972C4.81311 4.83487 4.21035 5.82099 3.40438 6.46576C2.28508 7.36121 1.66663 8.51979 1.66663 9.77482C1.66663 12.0743 3.529 13.9832 5.83329 13.9832C8.13759 13.9832 9.99996 12.0743 9.99996 9.77482C9.99996 8.5048 9.36723 7.36718 8.2684 6.47077C7.46094 5.81205 6.85239 4.82948 6.65044 3.81972Z" fill="#303030"/>
<path d="M11.6666 1.25C12.0639 1.25 12.4059 1.53038 12.4838 1.9199C12.8604 3.80315 14.0007 5.63335 15.5206 6.84928C17.3364 8.30194 18.3327 10.1068 18.3333 12.0816C18.3384 13.398 17.9527 14.6862 17.2251 15.7832C16.4971 16.8807 15.4597 17.7373 14.2443 18.2445C13.4239 18.5868 12.5472 18.7596 11.6667 18.7574C10.7862 18.7596 9.90946 18.5869 9.08897 18.2445C8.18337 17.8666 7.37528 17.2925 6.72194 16.5719C6.49457 16.3211 6.38088 16.1958 6.36561 16.0626C6.35211 15.945 6.38739 15.8312 6.46508 15.7418C6.55298 15.6407 6.75893 15.5918 7.17084 15.4941C9.76211 14.8791 11.6666 12.519 11.6666 9.77482C11.6666 8.1378 10.9452 6.72691 9.83407 5.63711C9.66251 5.46884 9.57673 5.38471 9.54419 5.3051C9.51219 5.22682 9.50516 5.1668 9.51819 5.08324C9.53145 4.99827 9.59447 4.89815 9.72051 4.69791C10.2629 3.8362 10.6565 2.88502 10.8495 1.9199C10.9274 1.53038 11.2694 1.25 11.6666 1.25Z" fill="#303030"/>
</svg>
