<svg width="16" height="16" viewBox="0 0 16 16" fill="none" xmlns="http://www.w3.org/2000/svg">
<path d="M5.32037 3.05578C5.25804 2.74416 4.98443 2.51986 4.66665 2.51986C4.34886 2.51986 4.07525 2.74416 4.01293 3.05578C3.8505 3.86789 3.36829 4.65679 2.72352 5.17261C1.82807 5.88897 1.33331 6.81583 1.33331 7.81986C1.33331 9.65941 2.82321 11.1865 4.66665 11.1865C6.51008 11.1865 7.99998 9.65941 7.99998 7.81986C7.99998 6.80384 7.49379 5.89374 6.61473 5.17661C5.96876 4.64964 5.48193 3.86358 5.32037 3.05578Z" fill="white"/>
<path d="M9.33333 1C9.65112 1 9.92473 1.22431 9.98705 1.53592C10.2884 3.04252 11.2005 4.50668 12.4165 5.47942C13.8691 6.64155 14.6662 8.08544 14.6667 9.66529C14.6707 10.7184 14.3622 11.749 13.7801 12.6266C13.1977 13.5045 12.3678 14.1898 11.3955 14.5956C10.7391 14.8695 10.0378 15.0076 9.33337 15.0059C8.62894 15.0076 7.92758 14.8695 7.27119 14.5956C6.54671 14.2933 5.90024 13.834 5.37756 13.2575C5.19566 13.0569 5.10472 12.9566 5.0925 12.8501C5.0817 12.756 5.10992 12.665 5.17208 12.5935C5.24239 12.5126 5.40716 12.4735 5.73668 12.3952C7.8097 11.9033 9.33331 10.0152 9.33331 7.81986C9.33331 6.51024 8.75615 5.38153 7.86726 4.50969C7.73002 4.37507 7.66139 4.30777 7.63536 4.24408C7.60977 4.18146 7.60414 4.13344 7.61457 4.06659C7.62517 3.99862 7.67559 3.91852 7.77642 3.75833C8.21035 3.06896 8.52519 2.30802 8.67961 1.53592C8.74193 1.22431 9.01554 1 9.33333 1Z" fill="white"/>
</svg>
