<svg width="16" height="16" viewBox="0 0 16 16" fill="none" xmlns="http://www.w3.org/2000/svg">
<g clip-path="url(#clip0_669_160)">
<path fill-rule="evenodd" clip-rule="evenodd" d="M1.51511 12.8766C3.18568 11.1048 5.47033 10.0007 8.00018 10.0007C10.53 10.0007 12.8147 11.1048 14.4852 12.8766C14.6678 13.0702 14.7177 15.3538 14.6123 15.5981C14.5069 15.8424 14.2663 16.0007 14.0002 16.0007H2.00018C1.7341 16.0007 1.4935 15.8424 1.38808 15.5981C1.28265 15.3538 1.33258 13.0702 1.51511 12.8766Z" fill="white"/>
<path fill-rule="evenodd" clip-rule="evenodd" d="M4.33351 5.00065C4.33351 2.97561 5.97513 1.33398 8.00018 1.33398C10.0252 1.33398 11.6668 2.97561 11.6668 5.00065C11.6668 7.0257 10.0252 8.66732 8.00018 8.66732C5.97513 8.66732 4.33351 7.0257 4.33351 5.00065Z" fill="white"/>
</g>
<defs>
<clipPath id="clip0_669_160">
<rect x="1" y="1" width="14" height="14" rx="7" fill="white"/>
</clipPath>
</defs>
</svg>
